# xmcd
#
# Track frame offsets: 
#        150
#        21207
#        37100
#        54070
#        71051
#        87820
#        107841
#        127478
#        139495
#        167546
#        185437
#        202819
#        217838
#
# Disc length: 3128 seconds
#
# Revision: 0
# Processed by: cddbd v1.5.2PL0 Copyright (c) Steve Scherf et al.
# Submitted via: ExactAudioCopy v1.0b3
#
DISCID=b90c360d
DTITLE=Gladys Knight and The Pips - Imagination [Expanded]
DYEAR=1973
DGENRE=Soul
TTITLE0=Midnight Train to Georgia
TTITLE1=I've Got to Use My Imagination
TTITLE2=Storms of Troubled Times
TTITLE3=Best Thing That Ever Happened to Me
TTITLE4=Once in a Lifetime Thing
TTITLE5=Where Peaceful Waters Flow
TTITLE6=I Can See Clearly Now
TTITLE7=Perfect Love
TTITLE8=Window Raisin' Granny
TTITLE9=Midnight Train To Georgia (Single Version)
TTITLE10=Window Raisin' Granny (Single Version)
TTITLE11=Midnight Train To Georgia (Short Version)
TTITLE12=Midnight Train To Georgia (Instrumental)
EXTD=
EXTT0=
EXTT1=
EXTT2=
EXTT3=
EXTT4=
EXTT5=
EXTT6=
EXTT7=
EXTT8=
EXTT9=
EXTT10=
EXTT11=
EXTT12=
PLAYORDER=
